<svg width="63" height="63" viewBox="0 0 63 63" fill="none" xmlns="http://www.w3.org/2000/svg">
<path d="M45.4283 16.8733C53.3025 24.7475 53.3025 37.554 45.4283 45.4282C37.5541 53.3024 24.7477 53.3024 16.8735 45.4282C8.99923 37.554 8.99923 24.7475 16.8734 16.8733C24.7477 8.99911 37.5541 8.99911 45.4283 16.8733ZM46.7263 15.5754C38.1165 6.96566 24.1852 6.96566 15.5755 15.5754C6.96578 24.1851 6.96578 38.1164 15.5755 46.7261C24.1852 55.3359 38.1165 55.3359 46.7263 46.7261C55.336 38.1164 55.336 24.1851 46.7263 15.5754Z" fill="white"/>
<path d="M39.8038 24.2284L38.0732 22.4978L22.4979 38.0732L24.2285 39.8038L39.8038 24.2284Z" fill="white"/>
<path d="M39.8039 38.0732L24.2285 22.4978L22.4979 24.2284L38.0733 39.8038L39.8039 38.0732Z" fill="white"/>
</svg>
