<svg width="70" height="70" viewBox="0 0 70 70" fill="none" xmlns="http://www.w3.org/2000/svg">
<path d="M67 35C67 52.6731 52.6731 67 35 67C17.3269 67 3 52.6731 3 35C3 17.3269 17.3269 3 35 3C52.6731 3 67 17.3269 67 35Z" fill="#1F45CB"/>
<path fill-rule="evenodd" clip-rule="evenodd" d="M70 35C70 54.33 54.33 70 35 70C15.67 70 0 54.33 0 35C0 15.67 15.67 0 35 0C54.33 0 70 15.67 70 35ZM35 67C52.6731 67 67 52.6731 67 35C67 17.3269 52.6731 3 35 3C17.3269 3 3 17.3269 3 35C3 52.6731 17.3269 67 35 67Z" fill="#EDEFF4"/>
<path fill-rule="evenodd" clip-rule="evenodd" d="M21.5 36C21.5 35.1716 22.1716 34.5 23 34.5H47C47.8284 34.5 48.5 35.1716 48.5 36C48.5 36.8284 47.8284 37.5 47 37.5H23C22.1716 37.5 21.5 36.8284 21.5 36Z" fill="white"/>
<path fill-rule="evenodd" clip-rule="evenodd" d="M21.5 29C21.5 28.1716 22.1716 27.5 23 27.5H47C47.8284 27.5 48.5 28.1716 48.5 29C48.5 29.8284 47.8284 30.5 47 30.5H23C22.1716 30.5 21.5 29.8284 21.5 29Z" fill="white"/>
<path fill-rule="evenodd" clip-rule="evenodd" d="M21.5 42C21.5 41.1716 22.1716 40.5 23 40.5H47C47.8284 40.5 48.5 41.1716 48.5 42C48.5 42.8284 47.8284 43.5 47 43.5H23C22.1716 43.5 21.5 42.8284 21.5 42Z" fill="white"/>
</svg>
