<svg width="64" height="64" viewBox="0 0 64 64" fill="none" xmlns="http://www.w3.org/2000/svg">
<path d="M61.8667 12.8H44.8V3.2C44.8 2.35131 44.4629 1.53737 43.8627 0.937258C43.2626 0.337142 42.4487 0 41.6 0H16C15.1513 0 14.3374 0.337142 13.7373 0.937258C13.1371 1.53737 12.8 2.35131 12.8 3.2V11.744H12.5973C11.6619 11.7448 10.7431 11.9916 9.93316 12.4596C9.12323 12.9277 8.45066 13.6005 7.98293 14.4107L2.64 23.6587C1.60933 25.4421 1.06668 27.4655 1.06667 29.5253V53.3333C0.783769 53.3333 0.512458 53.4457 0.312419 53.6458C0.112381 53.8458 0 54.1171 0 54.4V62.9333C0 63.2162 0.112381 63.4875 0.312419 63.6876C0.512458 63.8876 0.783769 64 1.06667 64H16C16.2829 64 16.5542 63.8876 16.7542 63.6876C16.9543 63.4875 17.0667 63.2162 17.0667 62.9333V54.4C17.0667 54.1171 16.9543 53.8458 16.7542 53.6458C16.5542 53.4457 16.2829 53.3333 16 53.3333V52.5611L16.9141 51.0347C17.2945 50.4027 17.6306 49.7451 17.92 49.0667H41.6C42.4487 49.0667 43.2626 48.7295 43.8627 48.1294C44.4629 47.5293 44.8 46.7154 44.8 45.8667V36.2667H61.8667C62.4325 36.2667 62.9751 36.0419 63.3752 35.6418C63.7752 35.2418 64 34.6991 64 34.1333V14.9333C64 14.3675 63.7752 13.8249 63.3752 13.4248C62.9751 13.0248 62.4325 12.8 61.8667 12.8ZM61.8667 25.6H32V14.9333H61.8667V25.6ZM32 27.7333H61.8667V29.8667H32V27.7333ZM24.5333 2.13333H33.0667V4.26667H24.5333V2.13333ZM14.9333 61.8667H2.13333V55.4667H14.9333V61.8667ZM17.0667 42.7947C17.0672 45.3126 16.382 47.7832 15.0848 49.9413L14.0181 51.7227C13.9197 51.8871 13.8674 52.075 13.8667 52.2667V53.3333H3.2V29.5253C3.19937 27.8401 3.64308 26.1844 4.4864 24.7253L9.83253 15.4731C10.112 14.9868 10.5148 14.5829 11.0002 14.302C11.4856 14.0211 12.0365 13.8731 12.5973 13.8731H12.8V26.8683L9.5296 32.5333L11.3771 33.6L19.3771 19.7429C19.66 19.2524 20.1261 18.8943 20.673 18.7475C21.22 18.6007 21.8028 18.6771 22.2933 18.96C22.7839 19.2429 23.142 19.7091 23.2888 20.256C23.4356 20.8029 23.3592 21.3857 23.0763 21.8763L15.7483 34.56C15.665 34.7086 15.6165 34.8742 15.6064 35.0443V35.1051C15.6065 35.2491 15.6355 35.3917 15.6917 35.5243L16.3552 37.5029C16.8281 38.9165 17.0684 40.3974 17.0667 41.888V42.7947ZM42.6667 45.8667C42.6667 46.1496 42.5543 46.4209 42.3543 46.6209C42.1542 46.821 41.8829 46.9333 41.6 46.9333H18.6507C19.014 45.5837 19.1987 44.1923 19.2 42.7947V41.888C19.2016 40.1664 18.9235 38.4559 18.3765 36.8235L17.8357 35.2107L24.9248 22.944C25.2977 22.2949 25.4937 21.5593 25.4933 20.8107C25.4941 19.8708 25.1845 18.9569 24.6126 18.2111C24.0407 17.4652 23.2386 16.929 22.3307 16.6858C21.4228 16.4426 20.46 16.506 19.5919 16.8661C18.7237 17.2262 17.9988 17.8629 17.5296 18.6773L14.9333 23.1733V3.2C14.9333 2.9171 15.0457 2.64579 15.2458 2.44575C15.4458 2.24571 15.7171 2.13333 16 2.13333H22.4V4.26667C22.4 4.83246 22.6248 5.37508 23.0248 5.77516C23.4249 6.17524 23.9675 6.4 24.5333 6.4H33.0667C33.6325 6.4 34.1751 6.17524 34.5752 5.77516C34.9752 5.37508 35.2 4.83246 35.2 4.26667V2.13333H41.6C41.8829 2.13333 42.1542 2.24571 42.3543 2.44575C42.5543 2.64579 42.6667 2.9171 42.6667 3.2V12.8H32C31.4342 12.8 30.8916 13.0248 30.4915 13.4248C30.0914 13.8249 29.8667 14.3675 29.8667 14.9333V34.1333C29.8667 34.6991 30.0914 35.2418 30.4915 35.6418C30.8916 36.0419 31.4342 36.2667 32 36.2667H42.6667V45.8667ZM32 34.1333V32H61.8667V34.1333H32Z" fill="#1F45CB"/>
<path d="M52.3078 22.9999C53.1193 22.9973 53.9008 22.7193 54.5 22.22C54.9714 22.6108 55.5571 22.8684 56.1859 22.9613C56.8147 23.0543 57.4596 22.9786 58.0421 22.7434C58.6247 22.5083 59.1198 22.1239 59.4674 21.6368C59.815 21.1498 60 20.5811 60 20C60 19.4188 59.815 18.8502 59.4674 18.3631C59.1198 17.8761 58.6247 17.4916 58.0421 17.2565C57.4596 17.0214 56.8147 16.9457 56.1859 17.0386C55.5571 17.1315 54.9714 17.3891 54.5 17.78C54.1041 17.4517 53.6264 17.2166 53.1084 17.0948C52.5903 16.9731 52.0475 16.9686 51.5271 17.0815C51.0067 17.1945 50.5243 17.4216 50.1219 17.7432C49.7194 18.0647 49.4091 18.471 49.2177 18.9267C49.0263 19.3824 48.9596 19.8739 49.0236 20.3585C49.0875 20.843 49.28 21.306 49.5844 21.7073C49.8889 22.1086 50.2961 22.4361 50.7706 22.6614C51.2452 22.8866 51.7728 23.0028 52.3078 22.9999ZM56.6922 19C56.909 19 57.1209 19.0586 57.3011 19.1685C57.4814 19.2784 57.6219 19.4346 57.7048 19.6173C57.7878 19.8 57.8095 20.0011 57.7672 20.1951C57.7249 20.389 57.6205 20.5672 57.4672 20.7071C57.3139 20.8469 57.1186 20.9422 56.906 20.9808C56.6934 21.0193 56.473 20.9995 56.2727 20.9238C56.0724 20.8482 55.9012 20.72 55.7808 20.5555C55.6604 20.3911 55.5961 20.1978 55.5961 20C55.5961 19.7348 55.7115 19.4804 55.9171 19.2929C56.1227 19.1053 56.4015 19 56.6922 19ZM52.3078 19C52.5246 19 52.7365 19.0586 52.9167 19.1685C53.097 19.2784 53.2375 19.4346 53.3204 19.6173C53.4034 19.8 53.4251 20.0011 53.3828 20.1951C53.3405 20.389 53.2361 20.5672 53.0828 20.7071C52.9295 20.8469 52.7342 20.9422 52.5216 20.9808C52.309 21.0193 52.0886 20.9995 51.8883 20.9238C51.688 20.8482 51.5168 20.72 51.3964 20.5555C51.276 20.3911 51.2117 20.1978 51.2117 20C51.2117 19.7348 51.3271 19.4804 51.5327 19.2929C51.7383 19.1053 52.0171 19 52.3078 19Z" fill="#1F45CB"/>
<path d="M35 23H41C41.2652 23 41.5196 22.8946 41.7071 22.7071C41.8946 22.5196 42 22.2652 42 22V18C42 17.7348 41.8946 17.4804 41.7071 17.2929C41.5196 17.1054 41.2652 17 41 17H35C34.7348 17 34.4804 17.1054 34.2929 17.2929C34.1054 17.4804 34 17.7348 34 18V22C34 22.2652 34.1054 22.5196 34.2929 22.7071C34.4804 22.8946 34.7348 23 35 23ZM36 19H40V21H36V19Z" fill="#1F45CB"/>
</svg>
