<svg width="60" height="64" viewBox="0 0 60 64" fill="none" xmlns="http://www.w3.org/2000/svg">
<path d="M51.2001 26.6667L50.2678 20.9803C50.1843 20.4825 49.927 20.0305 49.5417 19.7046C49.1564 19.3786 48.668 19.1999 48.1633 19.2H30.7702C30.2652 19.1999 29.7765 19.379 29.3912 19.7054C29.0058 20.0318 28.7487 20.4843 28.6657 20.9824L27.7483 26.4907L27.7334 26.6667C27.7361 27.3261 27.9426 27.9687 28.3244 28.5063C28.7063 29.044 29.245 29.4506 29.8667 29.6704V41.6H27.7334V43.7333H51.2001V41.6H49.0667V29.6704C49.6885 29.4506 50.2272 29.044 50.609 28.5063C50.9909 27.9687 51.1973 27.3261 51.2001 26.6667ZM46.9334 21.3333H48.1633L49.0667 26.7403C49.057 27.0232 48.9352 27.2906 48.7283 27.4837C48.5214 27.6769 48.2462 27.7799 47.9633 27.7701C47.6804 27.7604 47.4129 27.6386 47.2198 27.4317C47.0267 27.2247 46.9236 26.9496 46.9334 26.6667V21.3333ZM42.6667 21.3333H44.8001V26.6667C44.8001 26.9496 44.6877 27.2209 44.4876 27.4209C44.2876 27.6209 44.0163 27.7333 43.7334 27.7333C43.4505 27.7333 43.1792 27.6209 42.9792 27.4209C42.7791 27.2209 42.6667 26.9496 42.6667 26.6667V21.3333ZM38.4001 21.3333H40.5334V26.6667C40.5334 26.9496 40.421 27.2209 40.221 27.4209C40.0209 27.6209 39.7496 27.7333 39.4667 27.7333C39.1838 27.7333 38.9125 27.6209 38.7125 27.4209C38.5124 27.2209 38.4001 26.9496 38.4001 26.6667V21.3333ZM34.1334 21.3333H36.2667V26.6667C36.2667 26.9496 36.1544 27.2209 35.9543 27.4209C35.7543 27.6209 35.483 27.7333 35.2001 27.7333C34.9172 27.7333 34.6459 27.6209 34.4458 27.4209C34.2458 27.2209 34.1334 26.9496 34.1334 26.6667V21.3333ZM30.7702 21.3333H32.0001V26.6667C32.0049 26.8067 31.9821 26.9464 31.933 27.0777C31.8838 27.2089 31.8093 27.3292 31.7137 27.4317C31.618 27.5342 31.5032 27.6168 31.3756 27.6749C31.248 27.7329 31.1103 27.7653 30.9702 27.7701C30.8301 27.775 30.6905 27.7522 30.5592 27.703C30.4279 27.6539 30.3076 27.5794 30.2052 27.4837C30.1027 27.3881 30.0201 27.2732 29.962 27.1457C29.9039 27.0181 29.8716 26.8803 29.8667 26.7403L30.7702 21.3333ZM37.3334 41.6V35.2C37.3334 34.9171 37.4458 34.6458 37.6458 34.4457C37.8459 34.2457 38.1172 34.1333 38.4001 34.1333H40.5334C40.8163 34.1333 41.0876 34.2457 41.2876 34.4457C41.4877 34.6458 41.6001 34.9171 41.6001 35.2V41.6H37.3334ZM43.7334 41.6V35.2C43.7334 34.3513 43.3963 33.5374 42.7961 32.9373C42.196 32.3371 41.3821 32 40.5334 32H38.4001C37.5514 32 36.7374 32.3371 36.1373 32.9373C35.5372 33.5374 35.2001 34.3513 35.2001 35.2V41.6H32.0001V29.6704C32.3942 29.5292 32.7566 29.3117 33.0667 29.0304C33.6483 29.5655 34.4098 29.8624 35.2001 29.8624C35.9904 29.8624 36.7518 29.5655 37.3334 29.0304C37.915 29.5655 38.6764 29.8624 39.4667 29.8624C40.257 29.8624 41.0185 29.5655 41.6001 29.0304C42.1817 29.5655 42.9431 29.8624 43.7334 29.8624C44.5237 29.8624 45.2851 29.5655 45.8667 29.0304C46.1771 29.3113 46.5395 29.5288 46.9334 29.6704V41.6H43.7334Z" fill="#1F45CB"/>
<path d="M40.5333 11.7877V5.33333C40.5316 3.91937 39.9692 2.5638 38.9694 1.56397C37.9695 0.564141 36.614 0.00169371 35.2 0H5.33333C3.91937 0.00169371 2.5638 0.564141 1.56397 1.56397C0.564141 2.5638 0.00169371 3.91937 0 5.33333V58.6667C0.00169371 60.0806 0.564141 61.4362 1.56397 62.436C2.5638 63.4359 3.91937 63.9983 5.33333 64H35.2C36.614 63.9983 37.9695 63.4359 38.9694 62.436C39.9692 61.4362 40.5316 60.0806 40.5333 58.6667V52.2123C45.7183 51.9512 50.6047 49.7077 54.1822 45.9456C57.7596 42.1835 59.7546 37.1905 59.7546 31.9989C59.7546 26.8074 57.7596 21.8144 54.1822 18.0523C50.6047 14.2902 45.7183 12.0466 40.5333 11.7856V11.7877ZM9.6 2.13333H30.9333V5.33333C30.9333 5.61623 30.821 5.88754 30.6209 6.08758C30.4209 6.28762 30.1496 6.4 29.8667 6.4H10.6667C10.3838 6.4 10.1125 6.28762 9.91242 6.08758C9.71238 5.88754 9.6 5.61623 9.6 5.33333V2.13333ZM35.2 61.8667H5.33333C4.48464 61.8667 3.67071 61.5295 3.07059 60.9294C2.47048 60.3293 2.13333 59.5154 2.13333 58.6667V5.33333C2.13333 4.48464 2.47048 3.67071 3.07059 3.07059C3.67071 2.47048 4.48464 2.13333 5.33333 2.13333H7.46667V5.33333C7.46667 6.18203 7.80381 6.99596 8.40392 7.59608C9.00404 8.19619 9.81797 8.53333 10.6667 8.53333H29.8667C30.7154 8.53333 31.5293 8.19619 32.1294 7.59608C32.7295 6.99596 33.0667 6.18203 33.0667 5.33333V2.13333H35.2C36.0487 2.13333 36.8626 2.47048 37.4627 3.07059C38.0629 3.67071 38.4 4.48464 38.4 5.33333V11.7877C33.215 12.0488 28.3287 14.2923 24.7512 18.0544C21.1737 21.8165 19.1787 26.8095 19.1787 32.0011C19.1787 37.1926 21.1737 42.1856 24.7512 45.9477C28.3287 49.7099 33.215 51.9534 38.4 52.2144V58.6667C38.4 59.5154 38.0629 60.3293 37.4627 60.9294C36.8626 61.5295 36.0487 61.8667 35.2 61.8667ZM39.4667 50.1333C35.8802 50.1333 32.3743 49.0698 29.3923 47.0773C26.4103 45.0848 24.0861 42.2528 22.7137 38.9393C21.3412 35.6259 20.9821 31.9799 21.6818 28.4624C22.3814 24.9448 24.1085 21.7138 26.6445 19.1778C29.1805 16.6418 32.4115 14.9148 35.929 14.2151C39.4466 13.5154 43.0926 13.8745 46.406 15.247C49.7194 16.6195 52.5515 18.9436 54.544 21.9257C56.5365 24.9077 57.6 28.4136 57.6 32C57.5946 36.8076 55.6824 41.4168 52.283 44.8163C48.8835 48.2158 44.2743 50.128 39.4667 50.1333Z" fill="#1F45CB"/>
</svg>
