<svg width="60" height="70" viewBox="0 0 60 70" fill="none" xmlns="http://www.w3.org/2000/svg">
<path fill-rule="evenodd" clip-rule="evenodd" d="M6 0C4.34312 0 3 1.33355 3 2.97872V8.93617C2.00002 10.6737 0 15.4894 0 20.8511C0 24.6736 1.46384 26.5582 3 27.4719V62.5532C3 64.1984 4.34312 65.5319 6 65.5319H22.5V62.5532H6V56.5957H22.5V53.617H6V28.2979C9 28.2979 12 26.0638 12 23.8298V23.0851C12 25.964 14.3505 28.2979 17.25 28.2979C20.1495 28.2979 22.5 25.964 22.5 23.0851C22.5 25.964 24.8505 28.2979 27.75 28.2979C30.6495 28.2979 33 25.964 33 23.0851V23.8298C33 26.0638 36 28.2979 39 28.2979V41.7021H42V27.4719C43.5362 26.5582 45 24.6736 45 20.8511C45 15.4894 43 10.6737 42 8.93617V2.97872C42 1.33355 40.6569 0 39 0H6ZM6 7.44681H39V2.97872H6V7.44681ZM2.25 20.8511C2.25 16.7266 4.25002 11.7622 4.875 10.4255H10.5V21.8821C10.5 23.6007 8.625 25.3191 6.75 25.3191C6.71027 25.3191 6.66582 25.3204 6.61716 25.3224C6.56657 25.3244 6.51137 25.3271 6.45213 25.3302L6.44289 25.3308C5.20853 25.3951 2.25 25.5493 2.25 20.8511ZM13.5 21.5957V10.4255H21V21.5957C21 23.6522 19.3211 25.3191 17.25 25.3191C15.1789 25.3191 13.5 23.6522 13.5 21.5957ZM24 21.5957V10.4255H31.5V21.5957C31.5 23.6522 29.8211 25.3191 27.75 25.3191C25.6789 25.3191 24 23.6522 24 21.5957ZM34.5 21.8821V10.4255H40.125C40.75 11.7622 42.75 16.7266 42.75 20.8511C42.75 25.5493 39.7915 25.3951 38.5571 25.3308L38.5479 25.3302C38.4316 25.3242 38.331 25.3191 38.25 25.3191C36.375 25.3191 34.5 23.6007 34.5 21.8821Z" fill="white"/>
<path d="M22.5 58.0851V61.0638H16.5V58.0851H22.5Z" fill="white"/>
<path fill-rule="evenodd" clip-rule="evenodd" d="M28.5 44.6809C26.8431 44.6809 25.5 46.0144 25.5 47.6596V67.0213C25.5 68.6664 26.8431 70 28.5 70H57C58.6568 70 60 68.6664 60 67.0213V47.6596C60 46.0144 58.6569 44.6809 57 44.6809H28.5ZM57 52.1277V47.6596H28.5V52.1277H57ZM28.5 67.0213V56.5957H57V67.0213H28.5Z" fill="white"/>
</svg>
