<svg width="57" height="66" viewBox="0 0 57 66" fill="none" xmlns="http://www.w3.org/2000/svg">
<path d="M25.5 61.5V58.5H13.5V61.5H25.5Z" fill="white"/>
<path fill-rule="evenodd" clip-rule="evenodd" d="M3 0C1.34312 0 0 1.34308 0 3V63C0 64.6569 1.34312 66 3 66H36C37.6568 66 39 64.6569 39 63V48H36V54H3V10.5H36V19.5H39V3C39 1.34308 37.6569 0 36 0H3ZM36 7.5V3H3V7.5H36ZM3 63V57H36V63H3Z" fill="white"/>
<path fill-rule="evenodd" clip-rule="evenodd" d="M43.5 33.75C43.5 36.6495 41.1495 39 38.25 39C35.3505 39 33 36.6495 33 33.75C33 30.8505 35.3505 28.5 38.25 28.5C41.1495 28.5 43.5 30.8505 43.5 33.75ZM40.5 33.75C40.5 34.9926 39.4926 36 38.25 36C37.0074 36 36 34.9926 36 33.75C36 32.5074 37.0074 31.5 38.25 31.5C39.4926 31.5 40.5 32.5074 40.5 33.75Z" fill="white"/>
<path d="M51 33.75C51 34.9926 49.9926 36 48.75 36C47.5074 36 46.5 34.9926 46.5 33.75C46.5 32.5074 47.5074 31.5 48.75 31.5C49.9926 31.5 51 32.5074 51 33.75Z" fill="white"/>
<path d="M27.75 36C28.9926 36 30 34.9926 30 33.75C30 32.5074 28.9926 31.5 27.75 31.5C26.5074 31.5 25.5 32.5074 25.5 33.75C25.5 34.9926 26.5074 36 27.75 36Z" fill="white"/>
<path fill-rule="evenodd" clip-rule="evenodd" d="M19.5 22.5H57V45H19.5V22.5ZM25.5 25.5H51L54 28.5V39L51 42H25.5L22.5 39V28.5L25.5 25.5Z" fill="white"/>
</svg>
